<?xml version="1.0" encoding="UTF-8" standalone="no"?> <svg xmlns="http://www.w3.org/2000/svg" width="4.03333in" height="1.71111in" viewBox="0 0 363 154"> <path id="Selection" fill="#dc3954" stroke="#dc3954" stroke-width="1" d="M 109.00,18.00 C 109.00,18.00 109.00,47.00 109.00,47.00 132.47,50.63 145.50,75.57 129.48,94.96 126.69,98.35 122.04,101.72 118.00,103.47 115.79,104.43 111.31,105.08 109.99,106.73 108.74,108.31 109.00,112.03 109.00,114.00 109.00,114.00 109.00,134.00 109.00,134.00 122.31,131.61 125.75,133.26 139.00,125.66 161.36,112.85 170.81,86.46 165.34,62.00 163.44,53.53 160.61,48.02 155.57,41.00 153.92,38.70 149.23,33.74 149.62,31.00 149.87,29.22 151.77,27.30 152.93,26.02 159.25,19.07 165.10,20.84 174.00,21.00 183.96,21.19 183.99,29.29 191.98,26.26 200.48,23.03 199.14,11.07 190.00,10.15 183.36,9.48 182.72,13.51 177.96,14.69 173.17,15.87 158.36,13.82 154.00,16.02 149.11,18.50 146.20,25.54 142.00,26.28 139.64,26.70 133.71,23.10 131.00,22.06 124.02,19.41 116.45,18.07 109.00,18.00 Z M 67.00,120.00 C 63.89,123.39 59.16,129.87 55.00,131.40 52.59,132.29 44.96,132.01 42.00,132.00 39.96,132.00 36.97,132.12 35.09,131.22 33.05,130.63 22.83,120.17 17.18,131.22 13.87,137.41 19.22,143.66 26.00,142.84 32.52,142.05 30.24,138.07 41.00,138.00 44.55,137.98 56.38,138.39 58.96,137.40 62.87,135.90 69.22,127.77 71.00,124.00 88.54,132.44 85.88,131.48 105.00,134.00 105.00,134.00 105.00,106.00 105.00,106.00 96.39,104.26 90.17,101.84 84.21,94.99 67.70,76.01 81.15,50.38 105.00,47.00 105.00,47.00 105.00,18.00 105.00,18.00 89.14,18.14 73.02,24.16 62.17,36.01 45.18,54.58 42.04,81.89 53.78,104.00 57.13,110.31 61.18,115.79 67.00,120.00 Z M 317.00,94.00 C 317.00,94.00 298.00,94.00 298.00,94.00 298.00,94.00 298.00,107.00 298.00,107.00 298.01,112.25 297.83,115.61 301.39,119.96 308.55,128.68 330.44,129.58 338.96,122.61 344.22,118.30 345.83,112.54 345.99,106.00 346.18,97.76 344.69,92.58 339.48,86.00 335.99,81.60 331.09,77.36 326.00,75.00 326.00,75.00 346.00,74.00 346.00,74.00 346.00,64.95 347.94,53.80 339.96,47.42 331.77,40.87 309.73,41.19 302.39,49.21 298.35,53.62 297.88,59.33 298.01,65.00 298.23,74.50 301.96,80.51 309.00,86.71 314.11,91.21 322.41,96.57 324.99,103.00 327.87,110.14 323.09,114.50 319.56,111.38 316.26,108.48 317.00,98.24 317.00,94.00 Z M 194.00,45.00 C 194.00,45.00 194.00,126.00 194.00,126.00 194.00,126.00 213.00,126.00 213.00,126.00 213.00,126.00 213.00,89.00 213.00,89.00 229.56,91.69 217.28,114.23 224.14,123.69 226.75,127.30 240.46,126.00 245.00,126.00 242.73,119.19 242.04,119.58 242.00,112.00 241.95,100.57 245.09,85.67 231.00,82.00 233.80,80.50 236.15,79.42 238.15,76.81 244.23,68.87 243.42,52.47 234.00,47.44 226.78,43.59 203.21,45.00 194.00,45.00 Z M 246.00,45.00 C 246.00,45.00 246.00,126.00 246.00,126.00 259.78,126.00 287.24,129.22 292.89,113.00 294.02,109.76 293.98,107.35 294.00,104.00 294.00,104.00 294.00,68.00 294.00,68.00 293.99,60.16 293.20,52.50 285.98,47.72 281.86,44.99 276.75,45.01 272.00,45.00 272.00,45.00 246.00,45.00 246.00,45.00 Z M 213.00,77.00 C 213.00,77.00 213.00,57.00 213.00,57.00 215.33,57.25 217.63,57.41 219.52,59.01 222.73,61.73 222.78,70.54 220.26,73.70 218.44,75.98 215.67,76.43 213.00,77.00 Z M 266.00,113.00 C 266.00,113.00 266.00,57.00 266.00,57.00 274.05,57.65 274.91,61.76 275.00,69.00 275.00,69.00 275.00,98.00 275.00,98.00 274.99,105.87 275.41,111.91 266.00,113.00 Z M 326.00,74.00 C 322.08,71.16 318.49,68.21 318.13,63.00 317.65,56.12 323.19,56.51 324.83,58.57 326.59,60.80 326.00,70.81 326.00,74.00 Z" /> </svg>