<svg width="87" height="65" viewBox="0 0 87 65" fill="none" xmlns="http://www.w3.org/2000/svg">
<path d="M42.2 46.72V59.52C36.45 59.52 31.1 57.73 26.69 54.67L20.66 61.46H7.89999C7.40999 63.03 5.94999 64.11 4.21999 64.11C2.08999 64.11 0.359985 62.38 0.359985 60.25C0.359985 58.12 2.08999 56.39 4.21999 56.39C5.97999 56.39 7.48999 57.62 7.94999 59.23H19.67L24.92 53.32C18.81 48.31 14.89 40.7 14.89 32.21V32.17C14.89 31.6 14.92 31.04 14.96 30.47C15.85 16.23 27.74 4.89001 42.2 4.89001V18.2C34.74 18.65 28.78 24.87 28.78 32.45C28.78 40.05 34.74 46.28 42.2 46.72Z" fill="white"/>
<path d="M44.45 18.22V4.90999C50.2 4.90999 55.87 6.76999 60.32 10.01L65.98 3.63999H78.73C79.22 2.06999 80.69 0.98999 82.42 0.98999C84.55 0.98999 86.28 2.71999 86.28 4.84999C86.28 6.97999 84.55 8.70999 82.42 8.70999C80.66 8.70999 79.16 7.46999 78.7 5.85999L66.97 5.86999L62.07 11.4C68.06 16.42 71.96 24.33 71.75 32.89V32.93C71.75 33.5 71.72 34.07 71.69 34.63C70.33 48.58 58.92 59.54 44.46 59.54L44.45 46.74C51.91 46.29 57.87 40.22 57.87 32.65C57.87 25.05 51.91 18.66 44.45 18.22Z" fill="white"/>
</svg>
