<?xml version="1.0" encoding="utf-8"?>
<!-- Generator: Adobe Illustrator 22.0.0, SVG Export Plug-In . SVG Version: 6.00 Build 0)  -->
<svg version="1.1" id="Layer_1" xmlns="http://www.w3.org/2000/svg" xmlns:xlink="http://www.w3.org/1999/xlink" x="0px" y="0px"
	 viewBox="0 0 78.5 85" style="enable-background:new 0 0 78.5 85;" xml:space="preserve">
<style type="text/css">
	.st0{fill:#4D4D4D;}
	.st1{fill:#FFFFFF;}
	.st2{fill:#7AB1E0;}
</style>
<g>
	<g>
		<path class="st0" d="M47.7,69.9c-0.9-0.2-1.5-1-1.4-1.9l4.7-21c0,0,0,0,0,0c0.3-1.3,0-2.6-0.9-3.5c-0.9-0.9-2.2-1.4-3.5-1.3
			c0,0,0,0,0,0c0,0,0,0,0,0l-12,1.6h0c0,0,0,0,0,0h0c0,0,0,0,0,0c-1.1,0.1-2.1,0.7-2.7,1.6c-0.6,0.9-0.9,2.1-0.7,3.1c0,0,0,0,0,0
			s0,0,0,0l6,29.1c0.2,1.1-0.6,2.3-1.7,2.5c-1.2,0.2-2.3-0.5-2.6-1.6l-6.3-30.7c0,0,0,0,0,0c-0.4-1.8-1.8-3.1-3.6-3.2
			c-1.8-0.1-3.5,1.1-4,2.8c0,0,0,0,0,0L9,78.7c-0.4,1-1.6,1.6-2.7,1.3c-1.1-0.3-1.8-1.5-1.5-2.6l12.4-38.6v0h0
			c0.9-2.9,3.4-5,6.5-5.4c0,0,0,0,0,0s0,0,0,0L45,30.5h0c0,0,0,0,0,0h0c0,0,0,0,0,0c1.4-0.2,2.6-1.1,3.2-2.4
			c0.5-1.3,0.3-2.8-0.5-3.9c0,0,0,0,0,0v0l-13-16.7c-0.5-0.7-0.3-1.9,0.5-2.4c0.7-0.6,1.7-0.4,2.3,0.3l14.3,18.5
			c0.7,0.9,1.1,2,1.2,3.2l1.5,19c0,0.6,0,1.2-0.1,1.8l0,0l-4.7,21C49.5,69.6,48.6,70.1,47.7,69.9 M58.5,45.6l-1.5-19
			c-0.2-1.9-0.9-3.8-2-5.3c0,0,0,0,0,0l0,0L40.6,2.8c0,0,0,0,0,0c0,0,0,0,0,0c-2-2.3-5.4-2.7-7.8-0.9c-2.4,1.8-3,5.3-1.3,7.8
			c0,0,0,0,0,0c0,0,0,0.1,0.1,0.1c0,0,0,0,0,0.1c0,0,0,0,0,0l13,16.8c0,0,0,0,0,0c0,0,0,0,0,0c0,0,0,0,0,0l-21.4,2.9
			c-2.2,0.3-4.3,1.2-6,2.6c-1.7,1.4-3,3.3-3.7,5.5c0,0,0,0,0,0l0,0L1.1,76.3c0,0,0,0,0,0.1c0,0,0,0,0,0.1c0,0,0,0,0,0.1c0,0,0,0,0,0
			c-0.7,3.1,1.1,6.3,4.2,7.2C5.8,83.9,6.4,84,7,84c2.4,0,4.7-1.5,5.7-3.8c0,0,0,0,0,0c0,0,0,0,0,0c0,0,0,0,0,0c0,0,0-0.1,0-0.1
			l10.1-31.4l6.3,30.6c0,0,0,0,0,0c0,0,0,0,0,0c0.6,2.8,3.2,4.8,6,4.8c0.4,0,0.8,0,1.2-0.1c1.6-0.3,2.9-1.2,3.8-2.6
			c0.9-1.3,1.2-2.9,1-4.5c0,0,0,0,0,0c0,0,0,0,0,0l-6-29.1c0,0,0,0,0,0c0,0,0,0,0,0c0,0,0,0,0,0h0l12-1.6c0,0,0,0,0,0c0,0,0,0,0,0
			l0,0l-4.8,21.1c0,0,0,0,0,0.1c0,0,0,0,0,0.1c0,0,0,0.1,0,0.1c0,0,0,0,0,0c-0.4,2.9,1.5,5.7,4.4,6.3c0.4,0.1,0.9,0.1,1.3,0.1
			c2.5,0,4.7-1.6,5.4-4c0,0,0,0,0,0c0,0,0,0,0-0.1c0,0,0,0,0,0c0,0,0,0,0-0.1l4.8-21.1C58.5,47.6,58.6,46.6,58.5,45.6L58.5,45.6"/>
	</g>
	<g>
		<path class="st1" d="M35.1,84.8c-3.2,0-6-2.2-6.7-5.3l-5.7-27.9l-9.3,29c-1,2.6-3.5,4.3-6.4,4.3c-0.7,0-1.4-0.1-2.1-0.3
			c-3.4-1.1-5.5-4.7-4.6-8.1l0-0.2l12.4-38.8c0.7-2.3,2.1-4.3,3.9-5.8c1.8-1.5,4-2.5,6.4-2.8L43.2,26l-12.4-16
			c-1.9-2.8-1.2-6.7,1.5-8.8c2.7-2.1,6.5-1.7,8.8,1l14.5,18.6c1.3,1.6,2,3.6,2.2,5.7l1.5,19c0.1,1.1,0,2.2-0.2,3.2L54.2,70
			c-0.9,3.2-4.4,5.1-7.6,4.4c-3.3-0.7-5.5-3.9-5-7.2l0-0.2l4.5-20.2L36,48.2l5.8,28.4c0.3,1.8,0,3.6-1.1,5.1c-1,1.5-2.5,2.5-4.3,2.9
			C36,84.7,35.5,84.8,35.1,84.8z M23,45.7l6.8,33.4c0.6,2.8,3.5,4.7,6.4,4.1c1.4-0.3,2.6-1.1,3.4-2.2c0.8-1.2,1.1-2.6,0.8-4l-6-29.4
			l0.2-0.7h0.5L47,45.3h1.2l-0.4,0.9l-4.8,21.3c-0.4,2.5,1.3,4.9,3.9,5.5c2.5,0.6,5.2-1,5.9-3.4l4.8-21.2c0.2-0.9,0.3-1.9,0.2-2.8
			l-1.5-19c-0.1-1.7-0.8-3.5-1.9-4.9L40,3.3c-1.8-2.1-4.7-2.4-6.8-0.8c-2.1,1.6-2.6,4.6-1.2,6.8l0.1,0.2l13.4,17.3l-0.7,0.6
			l-0.2,0.1l-21.4,2.9c-2.1,0.3-4.1,1.1-5.7,2.5c-1.6,1.3-2.8,3.1-3.5,5.1L1.7,76.7c-0.6,2.7,1,5.5,3.7,6.3C8,83.9,11,82.4,12,79.9
			L23,45.7z M35.1,80.8c-1.3,0-2.6-0.9-2.9-2.3l-6.3-30.7c-0.3-1.5-1.5-2.5-2.9-2.6c-1.4-0.1-2.8,0.9-3.3,2.3L9.7,78.9
			c-0.6,1.5-2.2,2.2-3.6,1.7c-1.5-0.5-2.3-2-2-3.4l12.4-38.6c1-3.1,3.6-5.3,6.8-5.9l0,0l0.3,0l21.4-2.9c1-0.1,2.1-0.9,2.5-2
			c0.4-1,0.3-2.2-0.4-3.1l-13-16.8c-0.8-1.1-0.5-2.7,0.6-3.5c1-0.8,2.5-0.6,3.4,0.4l14.4,18.5c0.8,1,1.3,2.3,1.4,3.6l1.5,19
			c0.1,0.7,0,1.4-0.2,2l-4.7,21c-0.4,1.3-1.7,2-3,1.7h0c-1.3-0.3-2.2-1.5-2-2.7l4.7-21.1c0.2-1.1,0-2.1-0.7-2.9
			c-0.7-0.7-1.7-1.1-2.7-1l-0.2,0l-11.9,1.6c-0.9,0.1-1.7,0.6-2.2,1.3c-0.5,0.7-0.7,1.6-0.6,2.5l0,0.1l6,29.1
			c0.3,1.6-0.8,3.1-2.3,3.4C35.5,80.8,35.3,80.8,35.1,80.8z M22.9,43.8c0.1,0,0.2,0,0.2,0c2.1,0.1,3.8,1.6,4.3,3.7l6.3,30.7
			c0.2,0.7,0.9,1.2,1.7,1.1c0.8-0.2,1.3-0.9,1.1-1.6l-6-29.3c-0.2-1.1,0.1-2.5,0.8-3.6c0.7-1,1.9-1.7,3.2-1.9l12-1.6
			c1.5-0.2,3.1,0.4,4.1,1.5c1,1.1,1.4,2.6,1,4.2L47,68.1c-0.1,0.5,0.3,0.9,0.8,1l0,0c0.6,0.1,1.1-0.2,1.2-0.6l4.7-20.9
			c0.1-0.5,0.2-1.1,0.1-1.6l-1.5-19c-0.1-1-0.5-2-1.1-2.8L36.9,5.8c-0.3-0.4-0.9-0.5-1.3-0.1c-0.4,0.3-0.6,1-0.3,1.4l13,16.7
			c1,1.3,1.3,3.1,0.6,4.6c-0.6,1.4-2,2.5-3.5,2.8l0,0H45l-21.3,2.9c-2.8,0.4-5,2.2-5.9,4.9L5.5,77.6c-0.1,0.7,0.3,1.4,1,1.6
			c0.7,0.2,1.5-0.1,1.7-0.8l10.1-31.4C19,45.1,20.9,43.8,22.9,43.8z"/>
	</g>
	<g>
		<path class="st0" d="M68.3,39.7c-2.8,0-5.2-2.3-5.2-5.2s2.3-5.2,5.2-5.2c2.8,0,5.2,2.3,5.2,5.2S71.2,39.7,68.3,39.7 M68.3,25.4
			c-5,0-9.1,4.1-9.1,9.1s4.1,9.1,9.1,9.1c5,0,9.1-4.1,9.1-9.1S73.4,25.4,68.3,25.4"/>
	</g>
	<g>
		<path class="st1" d="M68.3,44.4c-5.4,0-9.8-4.4-9.8-9.8c0-5.4,4.4-9.8,9.8-9.8s9.8,4.4,9.8,9.8C78.2,40,73.8,44.4,68.3,44.4z
			 M68.3,26.2c-4.6,0-8.4,3.8-8.4,8.4c0,4.6,3.8,8.4,8.4,8.4s8.4-3.8,8.4-8.4C76.7,29.9,73,26.2,68.3,26.2z M68.3,40.4
			c-3.3,0-5.9-2.6-5.9-5.9c0-3.3,2.6-5.9,5.9-5.9s5.9,2.6,5.9,5.9C74.2,37.8,71.6,40.4,68.3,40.4z M68.3,30.1c-2.4,0-4.4,2-4.4,4.4
			c0,2.4,2,4.4,4.4,4.4s4.4-2,4.4-4.4C72.8,32.1,70.8,30.1,68.3,30.1z"/>
	</g>
	<g>
		<path class="st2" d="M68.6,40.5c3.3,0,6-2.7,6-6c0-3.3-2.7-6-6-6s-6,2.7-6,6C62.5,37.8,65.2,40.5,68.6,40.5"/>
	</g>
</g>
</svg>
